<svg width="639" height="436" viewBox="0 0 639 436" fill="none" xmlns="http://www.w3.org/2000/svg">
<path d="M572.361 121.286C608.704 121.286 638.166 94.135 638.166 60.6429C638.166 27.1507 608.704 0 572.361 0C536.017 0 506.555 27.1507 506.555 60.6429C506.555 94.135 536.017 121.286 572.361 121.286Z" fill="#F2F2F2"/>
<path d="M234.874 435.762C340.789 435.762 426.649 356.637 426.649 259.032C426.649 161.426 340.789 82.3011 234.874 82.3011C128.96 82.3011 43.0997 161.426 43.0997 259.032C43.0997 356.637 128.96 435.762 234.874 435.762Z" fill="#64C77F"/>
<path opacity="0.2" d="M226.414 213.116C241.989 213.116 254.616 201.48 254.616 187.127C254.616 172.773 241.989 161.137 226.414 161.137C210.838 161.137 198.212 172.773 198.212 187.127C198.212 201.48 210.838 213.116 226.414 213.116Z" fill="black"/>
<path opacity="0.2" d="M226.414 406.307C253.412 406.307 275.298 386.138 275.298 361.258C275.298 336.379 253.412 316.209 226.414 316.209C199.416 316.209 177.53 336.379 177.53 361.258C177.53 386.138 199.416 406.307 226.414 406.307Z" fill="black"/>
<path opacity="0.2" d="M84.4629 304.081C91.2123 304.081 96.6838 299.038 96.6838 292.819C96.6838 286.599 91.2123 281.556 84.4629 281.556C77.7134 281.556 72.2419 286.599 72.2419 292.819C72.2419 299.038 77.7134 304.081 84.4629 304.081Z" fill="black"/>
<path opacity="0.2" d="M566.636 35.3492C570.224 35.3492 573.133 32.6688 573.133 29.3623C573.133 26.0558 570.224 23.3753 566.636 23.3753C563.048 23.3753 560.14 26.0558 560.14 29.3623C560.14 32.6688 563.048 35.3492 566.636 35.3492Z" fill="black"/>
<path opacity="0.2" d="M291.195 154.036C294.783 154.036 297.691 151.356 297.691 148.049C297.691 144.743 294.783 142.062 291.195 142.062C287.607 142.062 284.698 144.743 284.698 148.049C284.698 151.356 287.607 154.036 291.195 154.036Z" fill="black"/>
<path opacity="0.2" d="M217.953 274.626C222.626 274.626 226.414 271.135 226.414 266.829C226.414 262.523 222.626 259.032 217.953 259.032C213.28 259.032 209.492 262.523 209.492 266.829C209.492 271.135 213.28 274.626 217.953 274.626Z" fill="black"/>
<path opacity="0.2" d="M550.823 83.1829C554.411 83.1829 557.319 80.5024 557.319 77.1959C557.319 73.8894 554.411 71.209 550.823 71.209C547.235 71.209 544.326 73.8894 544.326 77.1959C544.326 80.5024 547.235 83.1829 550.823 83.1829Z" fill="black"/>
<path opacity="0.2" d="M375.969 230.458C379.557 230.458 382.466 227.778 382.466 224.472C382.466 221.165 379.557 218.485 375.969 218.485C372.381 218.485 369.473 221.165 369.473 224.472C369.473 227.778 372.381 230.458 375.969 230.458Z" fill="black"/>
<path opacity="0.2" d="M609.04 80.1971C614.223 80.1971 618.424 76.3254 618.424 71.5493C618.424 66.7733 614.223 62.9015 609.04 62.9015C603.858 62.9015 599.656 66.7733 599.656 71.5493C599.656 76.3254 603.858 80.1971 609.04 80.1971Z" fill="black"/>
<path opacity="0.2" d="M322.318 294.18C327.501 294.18 331.702 290.308 331.702 285.532C331.702 280.756 327.501 276.884 322.318 276.884C317.135 276.884 312.934 280.756 312.934 285.532C312.934 290.308 317.135 294.18 322.318 294.18Z" fill="black"/>
<path opacity="0.2" d="M116.425 198.389C123.175 198.389 128.646 193.347 128.646 187.127C128.646 180.907 123.175 175.864 116.425 175.864C109.676 175.864 104.204 180.907 104.204 187.127C104.204 193.347 109.676 198.389 116.425 198.389Z" fill="black"/>
<path d="M276.425 360.902C256.257 360.877 236.107 359.804 216.07 357.688C155.806 351.381 100.225 336.478 59.5665 315.724C18.4109 294.715 -2.64853 270.116 0.266748 246.458C2.28643 230.067 19.4776 215.397 52.8222 201.609C53.2771 201.422 53.794 201.409 54.2594 201.572C54.7249 201.736 55.1008 202.063 55.3047 202.482C55.5086 202.901 55.5238 203.377 55.3471 203.806C55.1703 204.236 54.8159 204.583 54.3618 204.771C22.3327 218.014 5.86035 231.778 4.00316 246.849C1.27016 269.024 21.6502 292.407 61.3889 312.692C101.625 333.231 156.709 347.988 216.494 354.245C276.28 360.502 333.552 357.504 377.761 345.803C421.424 334.247 446.975 315.67 449.707 293.495C451.556 278.494 442.589 262.588 423.777 247.495C423.401 247.194 423.17 246.767 423.135 246.308C423.101 245.849 423.266 245.397 423.593 245.05C423.921 244.704 424.384 244.491 424.882 244.459C425.379 244.428 425.87 244.579 426.246 244.881C446.034 260.756 455.438 277.702 453.443 293.886C450.528 317.544 424.019 337.165 378.799 349.133C349.357 356.926 314.216 360.902 276.425 360.902Z" fill="white"/>
</svg>
